<?xml version="1.0" encoding="iso-8859-1"?>
<!-- Generator: Adobe Illustrator 19.0.0, SVG Export Plug-In . SVG Version: 6.00 Build 0)  -->
<svg version="1.1" id="Layer_1" xmlns="http://www.w3.org/2000/svg" xmlns:xlink="http://www.w3.org/1999/xlink" x="0px" y="0px"
	 viewBox="0 0 511.999 511.999" style="enable-background:new 0 0 511.999 511.999;" xml:space="preserve">
<path style="fill:#BA82AA;" d="M195.593,316.337c-14.075-14.075-24.985-29.085-31.489-42.999L20.496,429.072
	c-15.342,16.733-15.669,42.846,0,59.839c16.524,17.919,44.446,19.051,62.366,2.527l155.734-143.609
	C224.681,341.324,209.671,330.414,195.593,316.337z"/>
<path style="fill:#FFA6BB;" d="M197.804,236.792c2.773,2.922,4.833,6.589,5.777,10.805c1.597,7.131,9.986,21.476,24.631,36.121
	c14.646,14.646,28.991,23.034,36.121,24.632c4.217,0.944,7.885,3.006,10.807,5.781l83.98-77.441
	c1.134-1.053,2.332-2.242,3.397-3.397c22.223-24.101,20.702-61.653-3.397-83.877c-24.099-22.223-61.652-20.702-83.876,3.397
	L197.804,236.792z"/>
<path style="opacity:0.1;enable-background:new    ;" d="M53.953,462.53l254.748-276.26c17.101-18.546,43.276-23.704,65.416-14.978
	c-3.177-8.084-8.183-15.594-14.998-21.878c-24.099-22.223-61.652-20.702-83.876,3.397L20.496,429.072
	c-15.342,16.733-15.669,42.846,0,59.839c6.345,6.881,14.375,11.277,22.869,13.158C40.34,488.318,43.956,473.433,53.953,462.53z"/>
<path style="fill:#FFD782;" d="M195.593,316.337c-19.564-19.564-33.061-40.944-37.028-58.659
	c-2.783-12.431,5.037-24.764,17.467-27.548c12.43-2.785,24.765,5.036,27.548,17.467c1.597,7.131,9.986,21.476,24.632,36.12
	c14.646,14.646,28.99,23.034,36.12,24.632c12.43,2.783,20.251,15.119,17.467,27.548c-2.783,12.43-15.118,20.25-27.548,17.467
	C236.538,349.397,215.158,335.901,195.593,316.337z"/>
<g style="opacity:0.1;">
	<path d="M175.295,274.406c-2.783-12.431,5.037-24.764,17.467-27.548c3.642-0.816,7.269-0.699,10.657,0.155
		c-3.037-12.085-15.154-19.625-27.386-16.884c-12.43,2.783-20.25,15.116-17.467,27.548c3.966,17.714,17.463,39.094,37.028,58.658
		c2.84,2.84,5.721,5.535,8.62,8.109C189.057,307.369,178.685,289.55,175.295,274.406z"/>
</g>
<path style="fill:#464655;" d="M480.017,76.593l-44.68-44.68c-33.391-33.391-88.469-30.055-117.586,7.122l-33.603,42.907
	c-32.386,41.351-28.81,100.37,8.33,137.51l0,0c37.14,37.14,96.159,40.715,137.51,8.33l42.907-33.603
	C510.072,165.061,513.409,109.984,480.017,76.593z"/>
<path style="opacity:0.1;enable-background:new    ;" d="M300.878,98.671l33.603-42.907c29.117-37.178,84.195-40.515,117.586-7.122
	l-16.73-16.729c-33.391-33.391-88.469-30.055-117.586,7.122l-33.603,42.907c-32.386,41.351-28.811,100.37,8.329,137.51l0,0
	c2.827,2.827,5.794,5.434,8.856,7.872C271.756,190.145,270.957,136.875,300.878,98.671z"/>
<path d="M50.795,511.954c0.735,0.03,1.467,0.045,2.198,0.045c13.344,0,26.013-4.941,35.881-14.04l151.503-139.707
	c4.09,1.63,8.088,2.906,11.936,3.769c2.302,0.516,4.657,0.776,6.999,0.776c14.808,0,27.905-10.498,31.143-24.961
	c1.746-7.788,0.554-15.775-3.35-22.674l62.565-57.693c5.424,0.789,10.901,1.185,16.386,1.185
	c21.538-0.001,43.185-6.118,62.083-18.64c4.085-2.706,5.201-8.211,2.495-12.296c-2.705-4.085-8.209-5.201-12.295-2.495
	c-39.762,26.338-95.472,17.177-125.889-19.199c-9.068-10.844-15.425-23.694-18.773-37.414c-0.025-0.101-0.05-0.201-0.075-0.302
	c-6.594-27.408-0.931-57.325,17.53-80.897l33.603-42.907c12.313-15.723,30.808-25.433,50.742-26.64
	c2.281-0.138,4.555-0.149,6.818-0.065L344.89,77.626c-2.598,4.154-1.336,9.629,2.819,12.225c1.463,0.914,3.089,1.351,4.695,1.351
	c2.957,0,5.848-1.479,7.532-4.17l41.207-65.912c10.416,3.363,20.015,9.16,27.918,17.064l16.066,16.066l-53.873,53.872
	c-3.465,3.465-3.465,9.082,0,12.547c1.732,1.732,4.003,2.599,6.273,2.599s4.541-0.866,6.273-2.599l53.873-53.873l16.068,16.066
	c7.903,7.904,13.699,17.504,17.063,27.919l-65.912,41.207c-4.156,2.596-5.418,8.071-2.82,12.225c1.683,2.692,4.574,4.17,7.532,4.17
	c1.606,0,3.232-0.436,4.694-1.351l59.828-37.404c0.085,2.263,0.073,4.536-0.065,6.818c-1.208,19.934-10.917,38.428-26.64,50.742
	l-21.26,16.651c-3.857,3.021-4.535,8.597-1.514,12.455c3.021,3.859,8.599,4.535,12.455,1.514l21.26-16.649
	c19.718-15.443,31.896-38.639,33.41-63.638c1.5-24.781-7.937-49.659-25.485-67.205c0,0-22.339-22.339-22.34-22.34
	c0,0-22.337-22.337-22.339-22.339c-17.502-17.504-42.493-26.98-67.201-25.483c-25.001,1.514-48.195,13.692-63.638,33.41
	l-33.603,42.907c-19.647,25.087-27.072,56.227-22.755,85.849l-57.673,62.543c-4.674-2.656-10.032-4.166-15.64-4.166
	c-2.345,0-4.7,0.261-7.002,0.777c-8.324,1.864-15.425,6.857-19.992,14.062c-4.568,7.205-6.058,15.756-4.192,24.081
	c0.862,3.849,2.139,7.847,3.77,11.94l-37.705,40.889c-3.322,3.602-3.094,9.215,0.507,12.536s9.215,3.093,12.537-0.509
	c0,0,33.152-35.952,33.161-35.959c-0.801,0.868,9.934,14.474,11.025,15.876c4.982,6.403,10.381,12.484,16.118,18.222
	c10.262,10.266,21.638,19.656,34.1,27.145L76.846,484.915c-14.293,13.181-36.647,12.276-49.829-2.018
	c-12.326-13.367-12.319-34.377,0-47.811l77.883-84.459c3.322-3.602,3.094-9.215-0.507-12.536c-3.602-3.322-9.215-3.095-12.537,0.509
	l-77.9,84.478c-18.518,20.196-18.51,51.756,0.017,71.848C23.571,505.335,36.648,511.382,50.795,511.954z M259.43,183.049
	c-3.628,4.012,13.587,26.933,15.8,29.917c6.851,9.24,15.141,17.447,24.422,24.241c2.902,2.125,25.302,18.438,29.237,15.29
	c0,0-54.464,50.223-54.468,50.226c0.035-0.517-11.782-4.299-13.017-4.911c-0.037-0.019-0.07-0.032-0.106-0.05
	c-6.28-3.078-16.161-9.668-26.812-20.319c-14.202-14.202-21.184-27.034-22.247-31.785c-0.002-0.013-0.007-0.025-0.009-0.037
	c-0.565-2.766-1.688-5.605-3.032-8.099C209.196,237.523,259.432,183.046,259.43,183.049z M218.012,324.52
	c-5.679-4.479-11.051-9.36-16.147-14.458c-14.798-14.798-29.934-33.29-34.643-54.325c-1.688-7.542,3.228-15.267,10.748-16.951
	c7.339-1.644,15.27,3.233,16.951,10.75c2.064,9.23,8.006,17.812,13.647,25.208c3.891,5.1,8.407,10.285,13.368,15.247
	c6.926,6.926,14.293,13.007,21.245,17.682c0.102,0.069,0.206,0.144,0.308,0.212c0.157,0.104,0.31,0.198,0.467,0.302
	c3.623,2.393,7.396,4.609,11.368,6.375c4.622,2.054,9.886,2.375,13.706,6.002c0.054,0.052,0.115,0.097,0.17,0.148
	c3.578,3.246,4.978,8.604,3.939,13.247C267.386,359.671,227.376,331.905,218.012,324.52z"/>
<g>
</g>
<g>
</g>
<g>
</g>
<g>
</g>
<g>
</g>
<g>
</g>
<g>
</g>
<g>
</g>
<g>
</g>
<g>
</g>
<g>
</g>
<g>
</g>
<g>
</g>
<g>
</g>
<g>
</g>
</svg>
