<?xml version="1.0" encoding="iso-8859-1"?>
<!-- Generator: Adobe Illustrator 19.0.0, SVG Export Plug-In . SVG Version: 6.00 Build 0)  -->
<svg version="1.1" id="Layer_1" xmlns="http://www.w3.org/2000/svg" xmlns:xlink="http://www.w3.org/1999/xlink" x="0px" y="0px"
	 viewBox="0 0 511.999 511.999" style="enable-background:new 0 0 511.999 511.999;" xml:space="preserve">
<rect x="313.804" y="85.835" style="fill:#FC7576;" width="57.802" height="98.263"/>
<path style="fill:#3D7A94;" d="M117.277,322.827l8.67,159.656c0,23.943,86.702,23.943,86.702,0l8.67-159.656H117.277z"/>
<g>
	<path style="fill:#F9545B;" d="M290.681,160.982l8.67,321.5c0,23.943,86.702,23.943,86.702,0l8.67-321.5H290.681z"/>
	<path style="fill:#F9545B;" d="M186.638,90.626V41.495c0-6.358-4.328-14.446-9.618-17.973l-15.443-10.296
		c-5.29-3.527-9.618-1.21-9.618,5.148v72.252c0,9.577,7.764,17.34,17.34,17.34C178.875,107.967,186.638,100.203,186.638,90.626z"/>
</g>
<g>
	<path style="fill:#000030;" d="M221.319,311.268h-40.461V117.106c10.196-4.469,17.34-14.654,17.34-26.48V41.495
		c0-10.284-6.21-21.888-14.766-27.591L167.989,3.609c-6.184-4.121-12.985-4.743-18.661-1.707c-5.676,3.038-8.931,9.041-8.931,16.473
		v72.252c0,11.827,7.144,22.012,17.34,26.48v194.16h-40.461c-3.174,0-6.21,1.306-8.394,3.61c-2.183,2.305-3.321,5.407-3.15,8.577
		l8.656,159.405c0.112,6.253,3.105,17.312,21.11,23.94c9.11,3.354,21.113,5.201,33.798,5.201c12.685,0,24.688-1.847,33.798-5.201
		c18.005-6.629,20.998-17.687,21.11-23.94l8.656-159.405c0.171-3.17-0.968-6.271-3.15-8.577
		C227.53,312.573,224.494,311.268,221.319,311.268z M163.52,28.417l7.088,4.725c2.089,1.393,4.47,5.844,4.47,8.353v49.131
		c0,3.187-2.593,5.78-5.78,5.78c-3.187,0-5.78-2.593-5.78-5.78L163.52,28.417z M201.106,481.846
		c-2.205,2.532-13.434,7.033-31.809,7.033s-29.604-4.502-31.809-7.033l-8.008-147.459h79.633L201.106,481.846z"/>
	<path style="fill:#000030;" d="M403.008,152.919c-2.177-2.236-5.164-3.496-8.284-3.496h-11.56v-14.45
		c6.384,0,11.56-5.177,11.56-11.56s-5.177-11.56-11.56-11.56V85.842c0-6.384-5.177-11.56-11.56-11.56h-57.802
		c-6.384,0-11.56,5.177-11.56,11.56v26.011c-6.385,0-11.56,5.177-11.56,11.56s5.176,11.56,11.56,11.56v14.45h-11.56
		c-3.12,0-6.107,1.261-8.284,3.496c-2.176,2.237-3.356,5.256-3.272,8.375l8.667,321.375c0.055,6.218,2.926,17.432,21.113,24.129
		c9.11,3.354,21.113,5.201,33.798,5.201s24.688-1.847,33.798-5.201c18.187-6.697,21.057-17.91,21.113-24.129l8.667-321.375
		C406.364,158.176,405.184,155.156,403.008,152.919z M325.362,97.402h34.681v14.45h-34.681V97.402z M325.362,134.973h34.681v14.45
		h-34.681V134.973z M374.505,481.85c-2.216,2.534-13.442,7.029-31.804,7.029c-18.361,0-29.587-4.495-31.804-7.029l-8.342-309.307
		h80.29L374.505,481.85z"/>
</g>
<g>
</g>
<g>
</g>
<g>
</g>
<g>
</g>
<g>
</g>
<g>
</g>
<g>
</g>
<g>
</g>
<g>
</g>
<g>
</g>
<g>
</g>
<g>
</g>
<g>
</g>
<g>
</g>
<g>
</g>
</svg>
