<?xml version="1.0" encoding="iso-8859-1"?>
<!-- Generator: Adobe Illustrator 19.0.0, SVG Export Plug-In . SVG Version: 6.00 Build 0)  -->
<svg version="1.1" id="Layer_1" xmlns="http://www.w3.org/2000/svg" xmlns:xlink="http://www.w3.org/1999/xlink" x="0px" y="0px"
	 viewBox="0 0 511.999 511.999" style="enable-background:new 0 0 511.999 511.999;" xml:space="preserve">
<path style="fill:#FFA6BB;" d="M59.196,155.189c-18.652,0-33.771,15.12-33.771,33.771l0,0c0,18.652,15.12,33.771,33.771,33.771
	h29.683v-67.542H59.196z"/>
<path style="opacity:0.1;enable-background:new    ;" d="M46.963,188.96L46.963,188.96c0-18.651,15.12-33.771,33.771-33.771H59.196
	c-18.652,0-33.771,15.121-33.771,33.771l0,0c0,18.652,15.12,33.771,33.771,33.771h21.538
	C62.082,222.732,46.963,207.612,46.963,188.96z"/>
<path style="fill:#FFA6BB;" d="M452.803,155.189c18.652,0,33.771,15.12,33.771,33.771l0,0c0,18.652-15.12,33.771-33.771,33.771
	H423.12v-67.542H452.803z"/>
<path style="opacity:0.1;enable-background:new    ;" d="M423.12,155.189v67.542h29.683c1.043,0,2.074-0.055,3.094-0.148
	c2.333-12.305,3.567-24.992,3.567-37.966c0-9.885-0.723-19.603-2.091-29.114c-1.495-0.202-3.019-0.316-4.569-0.316H423.12z"/>
<circle style="fill:#BA82AA;" cx="255.997" cy="184.622" r="176.545"/>
<path style="opacity:0.1;enable-background:new    ;" d="M104.226,184.62c0-93.337,72.436-169.746,164.158-176.104
	c-4.092-0.283-8.22-0.438-12.384-0.438c-97.501,0-176.542,79.04-176.542,176.543s79.04,176.542,176.542,176.542
	c4.164,0,8.292-0.155,12.384-0.438C176.662,354.364,104.226,277.956,104.226,184.62z"/>
<path style="fill:#B3EDFF;" d="M255.999,318.086c-73.593,0-133.467-59.873-133.467-133.467S182.406,51.152,255.999,51.152
	s133.467,59.873,133.467,133.467S329.593,318.086,255.999,318.086z"/>
<path style="fill:#FFA6BB;" d="M283.73,451.15h-55.462c-29.145,0-52.773,23.627-52.773,52.772l0,0h161.007l0,0
	C336.502,474.777,312.875,451.15,283.73,451.15z"/>
<path style="opacity:0.1;enable-background:new    ;" d="M260.575,451.15h-32.307c-29.145,0-52.773,23.627-52.773,52.772h32.307
	C207.802,474.777,231.429,451.15,260.575,451.15z"/>
<path d="M360.297,268.193c3.639,2.578,8.681,1.719,11.26-1.921c17-23.993,25.985-52.228,25.985-81.653
	c0-78.046-63.495-141.543-141.543-141.543S114.455,106.572,114.455,184.62s63.495,141.544,141.544,141.544
	c33.956,0,66.816-12.255,92.525-34.508c3.373-2.919,3.741-8.02,0.822-11.392c-2.919-3.373-8.021-3.741-11.392-0.822
	c-22.775,19.712-51.88,30.569-81.954,30.569c-69.141,0-125.391-56.249-125.391-125.391s56.25-125.391,125.391-125.391
	S381.39,115.478,381.39,184.62c0,26.061-7.958,51.066-23.013,72.314C355.798,260.572,356.658,265.613,360.297,268.193z"/>
<path d="M43.37,227.692c9.637,47.586,35.338,90.971,72.732,122.595c37.021,31.311,83.556,49.284,131.821,51.094v41.693h-19.654
	c-33.553,0-60.85,27.297-60.85,60.848c0,4.46,3.616,8.077,8.077,8.077h161.008c4.46,0,8.077-3.616,8.077-8.077
	c0-33.553-27.297-60.848-60.85-60.848h-19.654v-41.693c48.272-1.81,94.81-19.789,131.835-51.107
	c37.386-31.623,63.08-75.002,72.716-122.583c15.251-6.253,26.024-21.255,26.024-38.731c0-23.074-18.773-41.848-41.848-41.848
	h-16.018C419.408,63.236,344.95,0,255.999,0c-25.871,0-50.9,5.251-74.39,15.606c-22.683,10-42.846,24.254-59.929,42.365
	c-3.061,3.245-2.911,8.357,0.334,11.417c3.245,3.061,8.356,2.911,11.417-0.334c32.177-34.114,75.706-52.901,122.568-52.901
	c83.753,0,153.418,61.439,166.316,141.611c2.522,15.673,2.786,31.697,0.885,47.454c-0.58,4.814-1.4,9.591-2.389,14.338
	c-16.132,76.181-83.897,133.528-164.812,133.528S107.319,295.738,91.187,219.557c-4.126-19.485-4.74-39.764-1.866-59.472
	c3.471-23.737,11.963-46.46,25.072-66.752c2.421-3.746,1.346-8.746-2.401-11.167c-3.746-2.421-8.746-1.346-11.167,2.401
	c-12.403,19.198-21.015,40.382-25.595,62.545H59.196c-23.076,0-41.848,18.773-41.848,41.848
	C17.348,206.437,28.12,221.437,43.37,227.692z M283.73,459.227c21.889,0,40.153,15.816,43.965,36.618H184.303
	c3.813-20.803,22.076-36.618,43.965-36.618H283.73z M438.501,213.804c0.716-3.361,1.608-15.598,1.695-16.918
	c0.428-6.507,0.515-13.035,0.269-19.55c-0.171-4.518-0.518-9.031-1.025-13.524c-0.02-0.182-0.034-0.365-0.055-0.547h13.419
	c14.169,0,25.695,11.527,25.695,25.695c0,11.683-7.841,21.563-18.533,24.672c-0.342,0.07-0.678,0.159-1.006,0.272
	c-1.973,0.487-4.034,0.751-6.155,0.751h-14.63C438.276,214.655,438.386,214.344,438.501,213.804z M77.232,230.808
	c20.559,79.521,92.913,138.429,178.768,138.429s158.209-58.909,178.768-138.429h16.628c-9.84,41.539-32.968,79.263-65.916,107.133
	c-36.174,30.598-82.158,47.45-129.48,47.45c-47.316,0-93.295-16.848-129.467-47.438c-32.956-27.871-56.089-65.601-65.93-107.145
	L77.232,230.808L77.232,230.808z M59.196,163.266h13.419c-0.02,0.179-0.034,0.358-0.054,0.535
	c-1.9,16.893-1.482,34.077,1.264,50.855h-14.63c-14.169,0-25.695-11.527-25.695-25.695
	C33.501,174.793,45.027,163.266,59.196,163.266z"/>
<g>
</g>
<g>
</g>
<g>
</g>
<g>
</g>
<g>
</g>
<g>
</g>
<g>
</g>
<g>
</g>
<g>
</g>
<g>
</g>
<g>
</g>
<g>
</g>
<g>
</g>
<g>
</g>
<g>
</g>
</svg>
